<svg width="62" height="21" viewBox="0 0 62 21" fill="none" xmlns="http://www.w3.org/2000/svg">
<path d="M2.63672 8.70703L1.98047 15H0.544922L1.98047 6.5625H4.10742L6.08203 13.002L8.08008 6.5625H10.207L11.4023 15H9.03516L8.33789 8.87109L6.69141 15H4.56445L2.63672 8.70703ZM18.6035 8.23242L16.1426 14.1855C15.8613 14.8652 15.5469 15.5371 15.1992 16.2012C14.8555 16.8691 14.4824 17.5098 14.0801 18.123L13.3066 17.6543C13.4043 17.4785 13.5195 17.2754 13.6523 17.0449C13.7852 16.8145 13.916 16.5762 14.0449 16.3301C14.1738 16.084 14.293 15.8398 14.4023 15.5977C14.5117 15.3594 14.5957 15.1406 14.6543 14.9414L11.6953 8.23242H13.6758L15.6855 12.8086L17.2324 8.23242H18.6035ZM25.1895 8.83008L24.0762 10.6758C24.0293 10.5195 23.9688 10.3438 23.8945 10.1484C23.8203 9.95312 23.7285 9.77148 23.6191 9.60352C23.5098 9.43164 23.3789 9.28906 23.2266 9.17578C23.0742 9.05859 22.8984 9 22.6992 9C22.5156 9 22.3555 9.04688 22.2188 9.14062C22.0859 9.23438 21.9727 9.35742 21.8789 9.50977C21.7852 9.6582 21.707 9.82812 21.6445 10.0195C21.5859 10.207 21.5391 10.3984 21.5039 10.5938C21.4727 10.7852 21.4512 10.9707 21.4395 11.1504C21.4277 11.3262 21.4219 11.4785 21.4219 11.6074V15H19.4355V8.23242H20.1973L21 9.80859C21.1094 9.55469 21.2344 9.32227 21.375 9.11133C21.5156 8.89648 21.6777 8.71289 21.8613 8.56055C22.0449 8.4043 22.252 8.2832 22.4824 8.19727C22.7168 8.11133 22.9805 8.06836 23.2734 8.06836C23.4258 8.06836 23.5957 8.08203 23.7832 8.10938C23.9707 8.13281 24.1543 8.17578 24.334 8.23828C24.5137 8.29688 24.6797 8.375 24.832 8.47266C24.9844 8.57031 25.1035 8.68945 25.1895 8.83008ZM32.6953 15H30.7148V14.1914C30.4805 14.5117 30.1973 14.75 29.8652 14.9062C29.5371 15.0586 29.1758 15.1348 28.7812 15.1348C28.2656 15.1348 27.8047 15.043 27.3984 14.8594C26.9922 14.6758 26.6484 14.4258 26.3672 14.1094C26.0859 13.7891 25.8711 13.4141 25.7227 12.9844C25.5742 12.5547 25.5 12.0938 25.5 11.6016C25.5 11.1094 25.5742 10.6484 25.7227 10.2188C25.8711 9.78906 26.0859 9.41602 26.3672 9.09961C26.6484 8.7793 26.9922 8.52734 27.3984 8.34375C27.8047 8.16016 28.2656 8.06836 28.7812 8.06836C29.043 8.06836 29.291 8.10742 29.5254 8.18555C29.7637 8.26367 29.9805 8.375 30.1758 8.51953C30.375 8.66016 30.5488 8.83203 30.6973 9.03516C30.8496 9.23438 30.9688 9.45703 31.0547 9.70312L31.9336 8.23242H32.6953V15ZM30.7031 11.6016C30.7031 11.4258 30.6934 11.2402 30.6738 11.0449C30.6582 10.8496 30.6289 10.6562 30.5859 10.4648C30.543 10.2734 30.4824 10.0918 30.4043 9.91992C30.3301 9.74414 30.2324 9.58984 30.1113 9.45703C29.9941 9.32031 29.8516 9.21289 29.6836 9.13477C29.5156 9.05664 29.3203 9.01758 29.0977 9.01758C28.875 9.01758 28.6816 9.05859 28.5176 9.14062C28.3535 9.21875 28.2129 9.32617 28.0957 9.46289C27.9785 9.5957 27.8809 9.75 27.8027 9.92578C27.7285 10.1016 27.6699 10.2852 27.627 10.4766C27.584 10.668 27.5527 10.8613 27.5332 11.0566C27.5176 11.248 27.5098 11.4297 27.5098 11.6016C27.5098 11.7734 27.5176 11.957 27.5332 12.1523C27.5527 12.3477 27.584 12.541 27.627 12.7324C27.6699 12.9238 27.7285 13.1074 27.8027 13.2832C27.8809 13.459 27.9785 13.6152 28.0957 13.752C28.2129 13.8848 28.3535 13.9922 28.5176 14.0742C28.6816 14.1523 28.875 14.1914 29.0977 14.1914C29.3008 14.1914 29.4805 14.1504 29.6367 14.0684C29.7969 13.9824 29.9355 13.8691 30.0527 13.7285C30.1738 13.5879 30.2754 13.4277 30.3574 13.248C30.4395 13.0684 30.5059 12.8828 30.5566 12.6914C30.6074 12.5 30.6445 12.3105 30.668 12.123C30.6914 11.9316 30.7031 11.7578 30.7031 11.6016ZM36.9023 15H34.916V9.01758H33.6855V8.23242H34.916V5.74219H36.9023V8.23242H38.9531V9.01758H36.9023V15Z" fill="#A4A4A4"/>
<path d="M44.8403 10.3652C44.8403 11.3154 44.7173 12.2827 44.4712 13.2671C44.2319 14.2446 43.8936 15.1914 43.4561 16.1074C43.0254 17.0303 42.5059 17.8916 41.8975 18.6914C41.2891 19.4912 40.6191 20.1885 39.8877 20.7832L38.3086 19.8296C38.7188 19.269 39.0776 18.6333 39.3853 17.9224C39.6929 17.2114 39.9492 16.4731 40.1543 15.7075C40.3594 14.9419 40.5132 14.1729 40.6157 13.4004C40.7183 12.6279 40.7695 11.8931 40.7695 11.1958V0.234375H44.8403V10.3652ZM52.1924 15H48.1216V0.234375H55.3813C56.0649 0.234375 56.7246 0.316406 57.3604 0.480469C57.9961 0.637695 58.5566 0.890625 59.042 1.23926C59.5342 1.58105 59.9238 2.02539 60.2109 2.57227C60.5049 3.11914 60.6519 3.78223 60.6519 4.56152C60.6519 5.16992 60.522 5.74414 60.2622 6.28418C60.0093 6.81738 59.6675 7.2959 59.2368 7.71973C58.813 8.13672 58.3242 8.48535 57.7705 8.76562C57.2168 9.03906 56.6426 9.22021 56.0479 9.30908C56.3145 9.76025 56.5913 10.1875 56.8784 10.5908C57.1724 10.9941 57.4663 11.3735 57.7603 11.729C58.061 12.0776 58.3584 12.4023 58.6523 12.7031C58.9463 12.9971 59.2266 13.2671 59.4932 13.5132C60.1221 14.0874 60.7441 14.583 61.3594 15H56.2837C55.8735 14.6104 55.4839 14.1421 55.1147 13.5952C54.8003 13.1304 54.4824 12.5562 54.1611 11.8726C53.8467 11.1821 53.604 10.3857 53.4331 9.4834H52.1924V15ZM56.5195 4.56152C56.5195 3.57031 56.2769 2.84229 55.7915 2.37744C55.313 1.9126 54.5918 1.68018 53.6279 1.68018H52.1924V8.08887H53.6279C54.1406 8.08887 54.5781 7.99316 54.9404 7.80176C55.3096 7.60352 55.6104 7.34375 55.8428 7.02246C56.0752 6.69434 56.2461 6.31836 56.3555 5.89453C56.4648 5.4707 56.5195 5.02637 56.5195 4.56152Z" fill="#FFE500"/>
</svg>
